<svg version="1.1" viewBox="0.0 0.0 960.0 720.0" fill="none" stroke="none" stroke-linecap="square" stroke-miterlimit="10" xmlns:xlink="http://www.w3.org/1999/xlink" xmlns="http://www.w3.org/2000/svg"><clipPath id="p.0"><path d="m0 0l960.0 0l0 720.0l-960.0 0l0 -720.0z" clip-rule="nonzero"/></clipPath><g clip-path="url(#p.0)"><path fill="#ffffff" d="m0 0l960.0 0l0 720.0l-960.0 0z" fill-rule="evenodd"/><path fill="#0070c0" d="m641.2643 55.171253c-13.318909 -6.8500443 -57.080566 -37.294483 -79.91345 -41.10025c-22.832886 -3.805768 -31.587097 6.8491907 -57.083954 18.265644c-25.496857 11.4164505 -70.020874 36.152664 -95.89719 50.23307c-25.876343 14.080406 -35.386932 18.266495 -59.36078 34.24936c-23.973877 15.982864 -66.97745 43.762497 -84.48245 61.64781c-17.50499 17.88533 -15.98114 19.02629 -20.547562 45.66411c-4.5664062 26.637833 -4.1869354 78.77251 -6.850891 114.16283c-2.6639557 35.39032 -7.2295074 74.20523 -9.1328125 98.17911c-1.9033203 23.973877 -4.189499 27.017303 -2.287033 45.664093c1.9024506 18.64682 12.940277 42.62323 13.701782 66.2168c0.76148987 23.593567 -6.8491974 58.601013 -9.132828 75.34448c-2.2836304 16.74353 -24.737915 12.008667 -4.5689545 25.116577c20.168945 13.10791 104.65222 44.60907 125.58267 53.530884" fill-rule="evenodd"/><path stroke="#1f497d" stroke-width="1.0" stroke-linejoin="round" stroke-linecap="butt" d="m641.2643 55.171253c-13.318909 -6.8500443 -57.080566 -37.294483 -79.91345 -41.10025c-22.832886 -3.805768 -31.587097 6.8491907 -57.083954 18.265644c-25.496857 11.4164505 -70.020874 36.152664 -95.89719 50.23307c-25.876343 14.080406 -35.386932 18.266495 -59.36078 34.24936c-23.973877 15.982864 -66.97745 43.762497 -84.48245 61.64781c-17.50499 17.88533 -15.98114 19.02629 -20.547562 45.66411c-4.5664062 26.637833 -4.1869354 78.77251 -6.850891 114.16283c-2.6639557 35.39032 -7.2295074 74.20523 -9.1328125 98.17911c-1.9033203 23.973877 -4.189499 27.017303 -2.287033 45.664093c1.9024506 18.64682 12.940277 42.62323 13.701782 66.2168c0.76148987 23.593567 -6.8491974 58.601013 -9.132828 75.34448c-2.2836304 16.74353 -24.737915 12.008667 -4.5689545 25.116577c20.168945 13.10791 104.65222 44.60907 125.58267 53.530884" fill-rule="evenodd"/><path fill="#1f497d" d="m305.62863 611.0161c-1.9032898 -81.225464 -36.916718 -314.417 15.978607 -407.4392c52.895325 -93.02222 245.45288 -150.31378 301.3933 -150.6941c55.94049 -0.3803215 18.26654 106.55214 34.24939 148.41219c15.982849 41.86003 48.70923 74.58725 61.647827 102.74808c12.938599 28.160797 12.559082 28.162506 15.983704 66.21677c3.4245605 38.05429 12.555725 121.39148 4.563843 162.10889c-7.9918213 40.717346 -31.965698 57.460022 -52.515015 82.19537c-20.549255 24.735352 -44.903442 53.65851 -70.78064 66.2168c-25.877136 12.558228 -62.0307 7.2303467 -84.48242 9.1328125c-22.451721 1.9024658 -35.00659 -0.38201904 -50.227966 2.2819214c-15.221344 2.6639404 -20.550964 11.798462 -41.10025 13.701782c-20.549255 1.9033203 -64.31006 0.21270752 -82.19537 -2.2819214c-17.885315 -2.494629 -16.364044 2.7473145 -25.116547 -12.685913c-8.752502 -15.433228 -25.495148 1.3120117 -27.398468 -79.91345z" fill-rule="evenodd"/><path stroke="#1f497d" stroke-width="1.0" stroke-linejoin="round" stroke-linecap="butt" d="m305.62863 611.0161c-1.9032898 -81.225464 -36.916718 -314.417 15.978607 -407.4392c52.895325 -93.02222 245.45288 -150.31378 301.3933 -150.6941c55.94049 -0.3803215 18.26654 106.55214 34.24939 148.41219c15.982849 41.86003 48.70923 74.58725 61.647827 102.74808c12.938599 28.160797 12.559082 28.162506 15.983704 66.21677c3.4245605 38.05429 12.555725 121.39148 4.563843 162.10889c-7.9918213 40.717346 -31.965698 57.460022 -52.515015 82.19537c-20.549255 24.735352 -44.903442 53.65851 -70.78064 66.2168c-25.877136 12.558228 -62.0307 7.2303467 -84.48242 9.1328125c-22.451721 1.9024658 -35.00659 -0.38201904 -50.227966 2.2819214c-15.221344 2.6639404 -20.550964 11.798462 -41.10025 13.701782c-20.549255 1.9033203 -64.31006 0.21270752 -82.19537 -2.2819214c-17.885315 -2.494629 -16.364044 2.7473145 -25.116547 -12.685913c-8.752502 -15.433228 -25.495148 1.3120117 -27.398468 -79.91345z" fill-rule="evenodd"/><path fill="#000000" fill-opacity="0.0" d="m411.58542 131.53123l331.0482 0l0 174.52928l-331.0482 0z" fill-rule="evenodd"/><path fill="#ffffff" d="m477.77292 252.53624q0 2.3125 -0.1875 3.6250153q-0.1875 1.3125 -0.59375 1.875q-0.40625 0.5625 -1.0 0.5q-0.59375 -0.0625 -1.53125 -0.5l-47.9375 -23.875015q-0.875 -0.5 -1.28125 -2.09375q-0.40625 -1.59375 -0.40625 -4.78125q0 -1.625 0.125 -2.84375q0.125 -1.21875 0.3125 -2.0q0.1875 -0.78125 0.53125 -1.25q0.34375 -0.46875 0.78125 -0.71875l47.875 -23.75q1.8125 -0.875 2.5625 0.34375q0.75 1.21875 0.75 4.96875q0 2.5625 -0.09375 4.0625q-0.09375 1.5 -0.34375 2.375q-0.25 0.875 -0.6875 1.25q-0.4375 0.375 -1.1875 0.75l-36.0 16.875l35.3125 16.375q0.9375 0.4375 1.53125 0.875q0.59375 0.4375 0.90625 1.34375q0.3125 0.90625 0.4375 2.4375q0.125 1.53125 0.125 4.15625zm94.87503 -25.0625q0 1.625 -0.125 2.8125q-0.125 1.1875 -0.34375 2.0q-0.21875 0.8125 -0.5625 1.28125q-0.34375 0.46875 -0.78125 0.65625l-47.9375 23.750015q-0.875 0.4375 -1.5 0.375q-0.625 -0.0625 -1.03125 -0.6875q-0.40625 -0.625 -0.5625 -1.8437653q-0.15625 -1.21875 -0.15625 -3.09375q0 -2.5625 0.09375 -4.0625q0.09375 -1.5 0.34375 -2.375q0.25 -0.875 0.6875 -1.28125q0.4375 -0.40625 1.1875 -0.71875l36.0 -16.875l-35.3125 -16.375q-1.0 -0.4375 -1.59375 -0.875q-0.59375 -0.4375 -0.90625 -1.34375q-0.3125 -0.90625 -0.40625 -2.4375q-0.09375 -1.53125 -0.09375 -4.15625q0 -2.3125 0.15625 -3.625q0.15625 -1.3125 0.5625 -1.875q0.40625 -0.5625 1.03125 -0.5q0.625 0.0625 1.5 0.5l48.0 23.9375q0.8125 0.375 1.28125 2.0q0.46875 1.625 0.46875 4.8125z" fill-rule="nonzero"/><path fill="#000000" fill-opacity="0.0" d="m429.80002 276.32907l207.79337 0l0 329.63925l-207.79337 0z" fill-rule="evenodd"/><path fill="#ffffff" d="m478.30002 423.08408q0 1.625 -0.15625 2.65625q-0.15625 1.03125 -0.46875 1.65625q-0.3125 0.625 -0.75 0.9375q-0.4375 0.3125 -0.9375 0.4375q-1.4375 0.375 -2.75 0.5q-1.3125 0.125 -2.9375 0.125q-4.9375 0 -8.1875 -1.5625q-3.25 -1.5625 -5.1875 -4.53125q-1.9375 -2.96875 -2.71875 -7.46875q-0.78125 -4.5 -0.78125 -11.625l0 -10.75q0 -3.9375 -0.5 -6.25q-0.5 -2.3125 -1.5625 -4.09375q-1.0625 -1.78125 -2.71875 -2.96875q-1.65625 -1.1875 -4.03125 -1.5625q-0.625 -0.125 -1.0625 -0.46875q-0.4375 -0.34375 -0.75 -1.0q-0.3125 -0.65625 -0.46875 -1.78125q-0.15625 -1.125 -0.15625 -2.75q0 -1.6875 0.125 -2.84375q0.125 -1.15625 0.40625 -1.84375q0.28125 -0.6875 0.6875 -0.96875q0.40625 -0.28125 1.03125 -0.40625q4.375 -0.625 6.6875 -4.25q2.3125 -3.625 2.3125 -10.6875l0 -8.0625q0 -7.125 0.78125 -11.59375q0.78125 -4.46875 2.75 -7.5q1.96875 -3.03125 5.21875 -4.5625q3.25 -1.53125 8.125 -1.53125q1.625 0 2.9375 0.15625q1.3125 0.15625 2.6875 0.46875q0.5625 0.0625 1.0 0.375q0.4375 0.3125 0.75 0.9375q0.3125 0.625 0.46875 1.71875q0.15625 1.09375 0.15625 2.65625q0 1.625 -0.1875 2.6875q-0.1875 1.0625 -0.5 1.75q-0.3125 0.6875 -0.8125 0.96875q-0.5 0.28125 -1.0 0.28125l-2.3125 0.0625q-1.5625 0.0625 -2.59375 0.59375q-1.03125 0.53125 -1.6875 1.875q-0.65625 1.34375 -0.9375 3.625q-0.28125 2.28125 -0.28125 7.09375l0 7.75q0 4.8125 -0.6875 8.0625q-0.6875 3.25 -2.21875 5.875q-1.53125 2.625 -3.96875 4.53125q-2.4375 1.90625 -6.0 2.71875q3.5625 0.8125 6.0 2.6875q2.4375 1.875 3.96875 4.53125q1.53125 2.65625 2.21875 5.90625q0.6875 3.25 0.6875 8.0l0 10.5q0 4.75 0.28125 7.03125q0.28125 2.28125 0.875 3.625q0.59375 1.34375 1.5 1.90625q0.90625 0.5625 2.28125 0.625l2.3125 0q0.875 0.0625 1.5 0.34375q0.625 0.28125 0.96875 0.9375q0.34375 0.65625 0.46875 1.71875q0.125 1.0625 0.125 2.75zm76.18747 -50.75q0 1.75 -0.15625 2.875q-0.15625 1.125 -0.40625 1.8125q-0.25 0.6875 -0.6875 1.0q-0.4375 0.3125 -1.0 0.375q-2.375 0.3125 -4.0625 1.84375q-1.6875 1.53125 -2.78125 3.8125q-1.09375 2.28125 -1.625 5.09375q-0.53125 2.8125 -0.53125 7.0l0 8.0625q0 7.125 -0.78125 11.59375q-0.78125 4.46875 -2.75 7.46875q-1.96875 3.0 -5.21875 4.5625q-3.25 1.5625 -8.125 1.5625q-1.5625 0 -2.875 -0.15625q-1.3125 -0.15625 -2.875 -0.46875q-0.5 -0.125 -0.90625 -0.4375q-0.40625 -0.3125 -0.71875 -0.9375q-0.3125 -0.625 -0.5 -1.65625q-0.1875 -1.03125 -0.1875 -2.65625q0 -1.625 0.1875 -2.6875q0.1875 -1.0625 0.53125 -1.75q0.34375 -0.6875 0.8125 -0.96875q0.46875 -0.28125 0.96875 -0.34375l2.375 0q1.5625 -0.0625 2.59375 -0.59375q1.03125 -0.53125 1.6875 -1.875q0.65625 -1.34375 0.9375 -3.65625q0.28125 -2.3125 0.28125 -7.0625l0 -7.8125q0 -4.75 0.6875 -8.4375q0.6875 -3.6875 2.1875 -6.84375q1.5 -3.15625 3.96875 -5.5q2.46875 -2.34375 6.03125 -3.15625q-3.5625 -0.8125 -6.03125 -2.25q-2.46875 -1.4375 -3.96875 -3.5625q-1.5 -2.125 -2.1875 -4.9375q-0.6875 -2.8125 -0.6875 -7.625l0 -10.4375q0 -4.75 -0.28125 -7.03125q-0.28125 -2.28125 -0.84375 -3.65625q-0.5625 -1.375 -1.5 -1.90625q-0.9375 -0.53125 -2.3125 -0.59375l-2.25 -0.0625q-0.9375 0 -1.5625 -0.28125q-0.625 -0.28125 -1.0 -0.90625q-0.375 -0.625 -0.5 -1.71875q-0.125 -1.09375 -0.125 -2.78125q0 -1.5625 0.15625 -2.65625q0.15625 -1.09375 0.5 -1.71875q0.34375 -0.625 0.78125 -0.9375q0.4375 -0.3125 1.0 -0.375q1.4375 -0.375 2.75 -0.5q1.3125 -0.125 2.875 -0.125q4.9375 0 8.1875 1.53125q3.25 1.53125 5.1875 4.53125q1.9375 3.0 2.71875 7.46875q0.78125 4.46875 0.78125 11.65625l0 10.75q0 3.875 0.5 5.78125q0.5 1.90625 1.53125 3.15625q1.03125 1.25 2.71875 2.0q1.6875 0.75 4.0625 1.1875q0.5625 0.0625 1.03125 0.40625q0.46875 0.34375 0.75 1.03125q0.28125 0.6875 0.46875 1.78125q0.1875 1.09375 0.1875 2.71875z" fill-rule="nonzero"/><path fill="#ffffff" d="m465.17502 550.3091q0 2.5 -0.25 4.53125q-0.25 2.03125 -0.8125 3.84375q-0.5625 1.8125 -1.4375 3.53125q-0.875 1.71875 -2.1875 3.53125l-8.375 12.0q-0.4375 0.625 -0.96875 1.0625q-0.53125 0.4375 -1.28125 0.6875q-0.75 0.25 -1.8125 0.40625q-1.0625 0.15625 -2.6875 0.15625q-1.8125 0 -2.9375 -0.15625q-1.125 -0.15625 -1.625 -0.46875q-0.5 -0.3125 -0.53125 -0.8125q-0.03125 -0.5 0.28125 -1.1875l7.625 -17.25l0 -9.875q0 -2.125 0.5 -3.4375q0.5 -1.3125 1.5625 -2.0q1.0625 -0.6875 2.6875 -0.90625q1.625 -0.21875 3.9375 -0.21875q2.1875 0 3.75 0.21875q1.5625 0.21875 2.59375 0.90625q1.03125 0.6875 1.5 2.0q0.46875 1.3125 0.46875 3.4375zm44.4375 31.6875q0 0.625 -0.34375 1.125q-0.34375 0.5 -1.21875 0.84375q-0.875 0.34375 -2.28125 0.5q-1.40625 0.15625 -3.59375 0.15625q-2.125 0 -3.53125 -0.15625q-1.40625 -0.15625 -2.28125 -0.5q-0.875 -0.34375 -1.21875 -0.84375q-0.34375 -0.5 -0.34375 -1.125l0 -107.875q0 -0.625 0.34375 -1.125q0.34375 -0.5 1.21875 -0.84375q0.875 -0.34375 2.28125 -0.53125q1.40625 -0.1875 3.53125 -0.1875q2.1875 0 3.59375 0.1875q1.40625 0.1875 2.28125 0.53125q0.875 0.34375 1.21875 0.84375q0.34375 0.5 0.34375 1.125l0 107.875z" fill-rule="nonzero"/></g></svg>